<svg xmlns="http://www.w3.org/2000/svg" width="24" height="24" viewBox="0 0 24 24">
    <g>
        <g>
            <g>
                <path d="M20.244 18.09H7.906l-.261-1.069h13.983l2.265-9.866L5.418 4.94 4.572 0H.286v1.866H3l.487 2.842h-.039l2.23 12.318h.047l.272 1.11a2.792 2.792 0 1 0 3.254 2.752 2.766 2.766 0 0 0-.162-.927h8.525a2.791 2.791 0 1 0 2.632-1.866zM5.747 6.859l15.861 1.9-1.468 6.394H7.235L6 8.342zm.709 14.951a.927.927 0 1 1 .927-.928.928.928 0 0 1-.927.928zm13.788 0a.927.927 0 1 1 .928-.928.928.928 0 0 1-.928.929z" transform="translate(.234) translate(-.286)"/>
            </g>
        </g>
        <path fill="none" d="M0 0H24V24H0z" transform="translate(.234) translate(-.234)"/>
    </g>
</svg>
