<svg xmlns="http://www.w3.org/2000/svg" width="19.047" height="19.047" viewBox="0 0 19.047 19.047">
    <defs>
        <clipPath id="clip-path">
            <path id="instagram" d="M800.546 2463.112a2.352 2.352 0 0 0-1.724-.719h-14.16a2.455 2.455 0 0 0-2.443 2.443V2479a2.454 2.454 0 0 0 2.443 2.443h14.161a2.455 2.455 0 0 0 2.443-2.443v-14.161a2.353 2.353 0 0 0-.72-1.727z" class="cls-1" transform="translate(-782.219 -2462.393)"/>
        </clipPath>
        <style>
            .cls-1{fill:#0097a7}
        </style>
    </defs>
    <g id="Mask_Group_63" clip-path="url(#clip-path)" opacity="0.996">
        <g id="instagram-2" transform="translate(.002)">
            <path id="Path_48772" d="M19.009 5.6a6.96 6.96 0 0 0-.443-2.311A4.879 4.879 0 0 0 15.779.5a6.978 6.978 0 0 0-2.311-.44C12.449.011 12.125 0 9.539 0S6.63.011 5.614.056A6.962 6.962 0 0 0 3.3.5a4.647 4.647 0 0 0-1.686 1.1 4.689 4.689 0 0 0-1.1 1.686A6.978 6.978 0 0 0 .074 5.6C.025 6.616.014 6.939.014 9.525s.011 2.91.056 3.925a6.959 6.959 0 0 0 .443 2.311A4.878 4.878 0 0 0 3.3 18.548a6.979 6.979 0 0 0 2.311.443c1.016.045 1.339.056 3.925.056s2.91-.011 3.925-.056a6.958 6.958 0 0 0 2.311-.443 4.872 4.872 0 0 0 2.787-2.787 6.983 6.983 0 0 0 .441-2.31c.045-1.016.056-1.339.056-3.925s0-2.91-.048-3.925zm-1.715 7.776a5.221 5.221 0 0 1-.327 1.767 3.16 3.16 0 0 1-1.808 1.808 5.239 5.239 0 0 1-1.767.327c-1 .045-1.306.056-3.847.056s-2.845-.01-3.845-.055a5.218 5.218 0 0 1-1.767-.327 2.931 2.931 0 0 1-1.094-.711 2.961 2.961 0 0 1-.711-1.094A5.24 5.24 0 0 1 1.8 13.38c-.045-1-.056-1.306-.056-3.847s.011-2.846.056-3.847a5.218 5.218 0 0 1 .327-1.767 2.9 2.9 0 0 1 .715-1.094 2.957 2.957 0 0 1 1.094-.711A5.243 5.243 0 0 1 5.7 1.786c1-.045 1.306-.056 3.847-.056s2.846.011 3.847.056a5.221 5.221 0 0 1 1.767.327 2.929 2.929 0 0 1 1.094.711 2.961 2.961 0 0 1 .711 1.094 5.242 5.242 0 0 1 .327 1.767c.045 1 .056 1.306.056 3.847s-.011 2.839-.056 3.844zm0 0" class="cls-1" transform="translate(-.014)"/>
            <path id="Path_48773" d="M8.8 3.891a4.893 4.893 0 1 0 4.893 4.893A4.894 4.894 0 0 0 8.8 3.891zm0 8.067a3.174 3.174 0 1 1 3.174-3.174A3.174 3.174 0 0 1 8.8 11.958zm0 0" class="cls-1" transform="translate(.727 .741)"/>
            <path id="Path_48774" d="M13.613 3.912a1.142 1.142 0 1 1-1.142-1.142 1.142 1.142 0 0 1 1.142 1.142zm0 0" class="cls-1" transform="translate(2.14 .527)"/>
        </g>
    </g>
</svg>
