<svg xmlns="http://www.w3.org/2000/svg" width="158.816" height="99.539" viewBox="0 0 158.816 99.539">
    <defs>
        <style>
            .cls-1{fill:#ffe5c2}
        </style>
    </defs>
    <g id="Group_67085" transform="translate(-275.841 -80.767)">
        <g id="pawprint" transform="rotate(-30 320.425 -455.559)">
            <path id="Path_68197" d="M93.314 187.909a12.943 12.943 0 0 0-21.8 0l-5.759 8.991a8.193 8.193 0 0 0 10.195 11.922l.109-.048a16.105 16.105 0 0 1 12.824.048 8.148 8.148 0 0 0 3.287.7 8.251 8.251 0 0 0 1.83-.213 8.194 8.194 0 0 0 5.078-12.409zm0 0" class="cls-1" transform="translate(-57.767 -163.059)"/>
            <path id="Path_68198" d="M9.54 113.466a6.283 6.283 0 0 0 3.668-3.891 8.117 8.117 0 0 0-.143-5.6 8.123 8.123 0 0 0-3.648-4.249A6.284 6.284 0 0 0 4.09 99.3c-3.444 1.324-5.024 5.58-3.523 9.489a7.59 7.59 0 0 0 6.826 5.076 5.951 5.951 0 0 0 2.147-.399zm0 0" class="cls-1" transform="translate(0 -88.627)"/>
            <path id="Path_68199" d="M132.221 17.794c4.305 0 7.808-3.991 7.808-8.9s-3.5-8.9-7.808-8.9-7.807 3.992-7.807 8.9 3.502 8.9 7.807 8.9zm0 0" class="cls-1" transform="translate(-111.497)"/>
            <path id="Path_68200" d="M288.9 56.053a6.364 6.364 0 0 0 2.011.325 8.093 8.093 0 0 0 7.367-5.8 8.724 8.724 0 0 0-.125-6.019 6.6 6.6 0 0 0-9.785-3.252 8.726 8.726 0 0 0-3.7 4.747c-1.421 4.266.478 8.751 4.232 9.999zm0 0" class="cls-1" transform="translate(-254.689 -36.073)"/>
            <path id="Path_68201" d="M388.274 172.236c-2.969-2.193-7.41-1.243-9.9 2.12s-2.1 7.888.866 10.083a6.1 6.1 0 0 0 3.666 1.184 7.9 7.9 0 0 0 6.235-3.3c2.487-3.368 2.098-7.892-.867-10.087zm0 0" class="cls-1" transform="translate(-337.622 -153.295)"/>
        </g>
        <g id="pawprint-2" transform="rotate(-30 472.654 -590.769)">
            <path id="Path_68197-2" d="M82.55 185.686a8.115 8.115 0 0 0-13.664 0l-3.614 5.637a5.136 5.136 0 0 0 6.391 7.474l.068-.03a10.1 10.1 0 0 1 8.04.03 5.108 5.108 0 0 0 2.061.436 5.173 5.173 0 0 0 1.15-.13 5.137 5.137 0 0 0 3.181-7.78zm0 0" class="cls-1" transform="translate(-60.264 -170.106)"/>
            <path id="Path_68198-2" d="M5.981 108.03a3.939 3.939 0 0 0 2.3-2.439 5.089 5.089 0 0 0-.09-3.51A5.093 5.093 0 0 0 5.9 99.417a3.94 3.94 0 0 0-3.34-.269A4.511 4.511 0 0 0 .356 105.1a4.759 4.759 0 0 0 4.28 3.182 3.731 3.731 0 0 0 1.345-.252zm0 0" class="cls-1" transform="translate(0 -92.458)"/>
            <path id="Path_68199-2" d="M129.309 11.156c2.7 0 4.9-2.5 4.9-5.577S132.008 0 129.309 0s-4.895 2.5-4.895 5.579 2.196 5.577 4.895 5.577zm0 0" class="cls-1" transform="translate(-116.316)"/>
            <path id="Path_68200-2" d="M287.143 50.158a3.99 3.99 0 0 0 1.261.2 5.074 5.074 0 0 0 4.619-3.635 5.47 5.47 0 0 0-.078-3.774 4.138 4.138 0 0 0-6.135-2.039 5.471 5.471 0 0 0-2.321 2.976c-.889 2.678.302 5.49 2.654 6.272zm0 0" class="cls-1" transform="translate(-265.696 -37.632)"/>
            <path id="Path_68201-2" d="M383.969 171.795a4.8 4.8 0 0 0-5.663 7.651 3.827 3.827 0 0 0 2.3.742 4.95 4.95 0 0 0 3.909-2.07 4.512 4.512 0 0 0-.546-6.323zm0 0" class="cls-1" transform="translate(-352.213 -159.92)"/>
        </g>
        <g id="pawprint-3" transform="rotate(29 35.985 837.925)">
            <path id="Path_68197-3" d="M82.55 185.686a8.115 8.115 0 0 0-13.664 0l-3.614 5.637a5.136 5.136 0 0 0 6.391 7.474l.068-.03a10.1 10.1 0 0 1 8.04.03 5.108 5.108 0 0 0 2.061.436 5.173 5.173 0 0 0 1.15-.13 5.137 5.137 0 0 0 3.181-7.78zm0 0" class="cls-1" transform="translate(-60.264 -170.106)"/>
            <path id="Path_68198-3" d="M5.981 108.03a3.939 3.939 0 0 0 2.3-2.439 5.089 5.089 0 0 0-.09-3.51A5.093 5.093 0 0 0 5.9 99.417a3.94 3.94 0 0 0-3.34-.269A4.511 4.511 0 0 0 .356 105.1a4.759 4.759 0 0 0 4.28 3.182 3.731 3.731 0 0 0 1.345-.252zm0 0" class="cls-1" transform="translate(0 -92.458)"/>
            <path id="Path_68199-3" d="M129.309 11.156c2.7 0 4.9-2.5 4.9-5.577S132.008 0 129.309 0s-4.895 2.5-4.895 5.579 2.196 5.577 4.895 5.577zm0 0" class="cls-1" transform="translate(-116.316)"/>
            <path id="Path_68200-3" d="M287.143 50.158a3.99 3.99 0 0 0 1.261.2 5.074 5.074 0 0 0 4.619-3.635 5.47 5.47 0 0 0-.078-3.774 4.138 4.138 0 0 0-6.135-2.039 5.471 5.471 0 0 0-2.321 2.976c-.889 2.678.302 5.49 2.654 6.272zm0 0" class="cls-1" transform="translate(-265.696 -37.632)"/>
            <path id="Path_68201-3" d="M383.969 171.795a4.8 4.8 0 0 0-5.663 7.651 3.827 3.827 0 0 0 2.3.742 4.95 4.95 0 0 0 3.909-2.07 4.512 4.512 0 0 0-.546-6.323zm0 0" class="cls-1" transform="translate(-352.213 -159.92)"/>
        </g>
    </g>
</svg>
