<svg xmlns="http://www.w3.org/2000/svg" width="20.283" height="16.702" viewBox="0 0 20.283 16.702">
    <path d="M16.124.5H4.16A4.164 4.164 0 0 0 0 4.66v6.425a4.092 4.092 0 0 0 2.943 3.934l2.009 2.009a.594.594 0 0 0 .84 0l1.843-1.843h8.488a4.164 4.164 0 0 0 4.16-4.16V4.66A4.164 4.164 0 0 0 16.124.5zm2.971 10.525A2.975 2.975 0 0 1 16.124 14H7.389a.594.594 0 0 0-.42.174l-1.6 1.6-1.7-1.7a.594.594 0 0 0-.277-.156 2.906 2.906 0 0 1-2.206-2.826V4.66A2.975 2.975 0 0 1 4.16 1.688h11.964a2.975 2.975 0 0 1 2.971 2.972zm0 0" transform="translate(0 -.5)"/>
    <path d="M153.9 144.328h-7.546a.594.594 0 0 0 0 1.188h7.546a.594.594 0 0 0 0-1.188zm0 0" transform="translate(-139.984 -138.63)"/>
    <path d="M153.9 197.352h-7.546a.594.594 0 0 0 0 1.188h7.546a.594.594 0 1 0 0-1.188zm0 0" transform="translate(-139.984 -189.553)"/>
</svg>
