<svg xmlns="http://www.w3.org/2000/svg" width="405" height="482" viewBox="0 0 405 482">
    <defs>
        <clipPath id="zbi3nbau7a">
            <path fill="#fff" stroke="#707070" d="M0 0H405V482H0z" transform="translate(-11874 -10534)"/>
        </clipPath>
    </defs>
    <g clip-path="url(#zbi3nbau7a)" transform="translate(11874 10534)">
        <g opacity="0.1">
            <path fill="#00b7b7" d="M120.013 682.395C65.131 643.234 23.35 619.17 7.518 566.506c-15.949-52.833-5.948-134.1 24.543-208.03s27.551-179.261 61.911-247.285S200.108 12.445 254.286 1.474c54.179-10.8 113.986 38.992 142.834 109.717 28.731 70.556 26.62 162.044 48.667 245.429 21.93 83.38 68.013 158.836 68.721 230.743.821 72.076-43.859 140.607-95.809 180.949-51.833 40.511-110.82 52.833-158.9 31.058-47.964-21.77-85.021-77.983-139.786-116.975z" transform="rotate(-90 -10963 911)"/>
        </g>
    </g>
</svg>
