<svg xmlns="http://www.w3.org/2000/svg" width="25.125" height="25.462" viewBox="0 0 25.125 25.462">
    <path fill="none" d="M0 0H25V25H0z" transform="translate(.125 .462)"/>
    <path fill="#388476" d="M22.936 16.4a14.225 14.225 0 0 1-4.467-.71 1.917 1.917 0 0 0-1.944.412L13.7 18.231A15.8 15.8 0 0 1 6.67 11.2l2.077-2.76a1.983 1.983 0 0 0 .486-2.005 14.241 14.241 0 0 1-.714-4.473A1.966 1.966 0 0 0 6.553 0H1.966A1.966 1.966 0 0 0 0 1.966 22.963 22.963 0 0 0 22.936 24.9a1.966 1.966 0 0 0 1.964-1.964v-4.574a1.966 1.966 0 0 0-1.964-1.962z"/>
</svg>
