<svg xmlns="http://www.w3.org/2000/svg" width="192" height="257" viewBox="0 0 192 257">
    <defs>
        <clipPath id="clip-path">
            <path fill="none" d="M0 0H192V257H0z"/>
        </clipPath>
        <style>
            .cls-3{fill:#00b7b7}
        </style>
    </defs>
    <g id="Repeat_Grid_2" clip-path="url(#clip-path)">
        <g transform="translate(4009 1436)">
            <circle id="Ellipse_380" cx="3.5" cy="3.5" r="3.5" class="cls-3" transform="translate(-4009 -1436)"/>
        </g>
        <g transform="translate(4031 1436)">
            <circle id="Ellipse_380-2" cx="3.5" cy="3.5" r="3.5" class="cls-3" transform="translate(-4009 -1436)"/>
        </g>
        <g transform="translate(4053 1436)">
            <circle id="Ellipse_380-3" cx="3.5" cy="3.5" r="3.5" class="cls-3" transform="translate(-4009 -1436)"/>
        </g>
        <g transform="translate(4075 1436)">
            <circle id="Ellipse_380-4" cx="3.5" cy="3.5" r="3.5" class="cls-3" transform="translate(-4009 -1436)"/>
        </g>
        <g transform="translate(4097 1436)">
            <circle id="Ellipse_380-5" cx="3.5" cy="3.5" r="3.5" class="cls-3" transform="translate(-4009 -1436)"/>
        </g>
        <g transform="translate(4119 1436)">
            <circle id="Ellipse_380-6" cx="3.5" cy="3.5" r="3.5" class="cls-3" transform="translate(-4009 -1436)"/>
        </g>
        <g transform="translate(4141 1436)">
            <circle id="Ellipse_380-7" cx="3.5" cy="3.5" r="3.5" class="cls-3" transform="translate(-4009 -1436)"/>
        </g>
        <g transform="translate(4163 1436)">
            <circle id="Ellipse_380-8" cx="3.5" cy="3.5" r="3.5" class="cls-3" transform="translate(-4009 -1436)"/>
        </g>
        <g transform="translate(4185 1436)">
            <circle id="Ellipse_380-9" cx="3.5" cy="3.5" r="3.5" class="cls-3" transform="translate(-4009 -1436)"/>
        </g>
        <g transform="translate(4009 1458)">
            <circle id="Ellipse_380-10" cx="3.5" cy="3.5" r="3.5" class="cls-3" transform="translate(-4009 -1436)"/>
        </g>
        <g transform="translate(4031 1458)">
            <circle id="Ellipse_380-11" cx="3.5" cy="3.5" r="3.5" class="cls-3" transform="translate(-4009 -1436)"/>
        </g>
        <g transform="translate(4053 1458)">
            <circle id="Ellipse_380-12" cx="3.5" cy="3.5" r="3.5" class="cls-3" transform="translate(-4009 -1436)"/>
        </g>
        <g transform="translate(4075 1458)">
            <circle id="Ellipse_380-13" cx="3.5" cy="3.5" r="3.5" class="cls-3" transform="translate(-4009 -1436)"/>
        </g>
        <g transform="translate(4097 1458)">
            <circle id="Ellipse_380-14" cx="3.5" cy="3.5" r="3.5" class="cls-3" transform="translate(-4009 -1436)"/>
        </g>
        <g transform="translate(4119 1458)">
            <circle id="Ellipse_380-15" cx="3.5" cy="3.5" r="3.5" class="cls-3" transform="translate(-4009 -1436)"/>
        </g>
        <g transform="translate(4141 1458)">
            <circle id="Ellipse_380-16" cx="3.5" cy="3.5" r="3.5" class="cls-3" transform="translate(-4009 -1436)"/>
        </g>
        <g transform="translate(4163 1458)">
            <circle id="Ellipse_380-17" cx="3.5" cy="3.5" r="3.5" class="cls-3" transform="translate(-4009 -1436)"/>
        </g>
        <g transform="translate(4185 1458)">
            <circle id="Ellipse_380-18" cx="3.5" cy="3.5" r="3.5" class="cls-3" transform="translate(-4009 -1436)"/>
        </g>
        <g transform="translate(4009 1480)">
            <circle id="Ellipse_380-19" cx="3.5" cy="3.5" r="3.5" class="cls-3" transform="translate(-4009 -1436)"/>
        </g>
        <g transform="translate(4031 1480)">
            <circle id="Ellipse_380-20" cx="3.5" cy="3.5" r="3.5" class="cls-3" transform="translate(-4009 -1436)"/>
        </g>
        <g transform="translate(4053 1480)">
            <circle id="Ellipse_380-21" cx="3.5" cy="3.5" r="3.5" class="cls-3" transform="translate(-4009 -1436)"/>
        </g>
        <g transform="translate(4075 1480)">
            <circle id="Ellipse_380-22" cx="3.5" cy="3.5" r="3.5" class="cls-3" transform="translate(-4009 -1436)"/>
        </g>
        <g transform="translate(4097 1480)">
            <circle id="Ellipse_380-23" cx="3.5" cy="3.5" r="3.5" class="cls-3" transform="translate(-4009 -1436)"/>
        </g>
        <g transform="translate(4119 1480)">
            <circle id="Ellipse_380-24" cx="3.5" cy="3.5" r="3.5" class="cls-3" transform="translate(-4009 -1436)"/>
        </g>
        <g transform="translate(4141 1480)">
            <circle id="Ellipse_380-25" cx="3.5" cy="3.5" r="3.5" class="cls-3" transform="translate(-4009 -1436)"/>
        </g>
        <g transform="translate(4163 1480)">
            <circle id="Ellipse_380-26" cx="3.5" cy="3.5" r="3.5" class="cls-3" transform="translate(-4009 -1436)"/>
        </g>
        <g transform="translate(4185 1480)">
            <circle id="Ellipse_380-27" cx="3.5" cy="3.5" r="3.5" class="cls-3" transform="translate(-4009 -1436)"/>
        </g>
        <g transform="translate(4009 1502)">
            <circle id="Ellipse_380-28" cx="3.5" cy="3.5" r="3.5" class="cls-3" transform="translate(-4009 -1436)"/>
        </g>
        <g transform="translate(4031 1502)">
            <circle id="Ellipse_380-29" cx="3.5" cy="3.5" r="3.5" class="cls-3" transform="translate(-4009 -1436)"/>
        </g>
        <g transform="translate(4053 1502)">
            <circle id="Ellipse_380-30" cx="3.5" cy="3.5" r="3.5" class="cls-3" transform="translate(-4009 -1436)"/>
        </g>
        <g transform="translate(4075 1502)">
            <circle id="Ellipse_380-31" cx="3.5" cy="3.5" r="3.5" class="cls-3" transform="translate(-4009 -1436)"/>
        </g>
        <g transform="translate(4097 1502)">
            <circle id="Ellipse_380-32" cx="3.5" cy="3.5" r="3.5" class="cls-3" transform="translate(-4009 -1436)"/>
        </g>
        <g transform="translate(4119 1502)">
            <circle id="Ellipse_380-33" cx="3.5" cy="3.5" r="3.5" class="cls-3" transform="translate(-4009 -1436)"/>
        </g>
        <g transform="translate(4141 1502)">
            <circle id="Ellipse_380-34" cx="3.5" cy="3.5" r="3.5" class="cls-3" transform="translate(-4009 -1436)"/>
        </g>
        <g transform="translate(4163 1502)">
            <circle id="Ellipse_380-35" cx="3.5" cy="3.5" r="3.5" class="cls-3" transform="translate(-4009 -1436)"/>
        </g>
        <g transform="translate(4185 1502)">
            <circle id="Ellipse_380-36" cx="3.5" cy="3.5" r="3.5" class="cls-3" transform="translate(-4009 -1436)"/>
        </g>
        <g transform="translate(4009 1524)">
            <circle id="Ellipse_380-37" cx="3.5" cy="3.5" r="3.5" class="cls-3" transform="translate(-4009 -1436)"/>
        </g>
        <g transform="translate(4031 1524)">
            <circle id="Ellipse_380-38" cx="3.5" cy="3.5" r="3.5" class="cls-3" transform="translate(-4009 -1436)"/>
        </g>
        <g transform="translate(4053 1524)">
            <circle id="Ellipse_380-39" cx="3.5" cy="3.5" r="3.5" class="cls-3" transform="translate(-4009 -1436)"/>
        </g>
        <g transform="translate(4075 1524)">
            <circle id="Ellipse_380-40" cx="3.5" cy="3.5" r="3.5" class="cls-3" transform="translate(-4009 -1436)"/>
        </g>
        <g transform="translate(4097 1524)">
            <circle id="Ellipse_380-41" cx="3.5" cy="3.5" r="3.5" class="cls-3" transform="translate(-4009 -1436)"/>
        </g>
        <g transform="translate(4119 1524)">
            <circle id="Ellipse_380-42" cx="3.5" cy="3.5" r="3.5" class="cls-3" transform="translate(-4009 -1436)"/>
        </g>
        <g transform="translate(4141 1524)">
            <circle id="Ellipse_380-43" cx="3.5" cy="3.5" r="3.5" class="cls-3" transform="translate(-4009 -1436)"/>
        </g>
        <g transform="translate(4163 1524)">
            <circle id="Ellipse_380-44" cx="3.5" cy="3.5" r="3.5" class="cls-3" transform="translate(-4009 -1436)"/>
        </g>
        <g transform="translate(4185 1524)">
            <circle id="Ellipse_380-45" cx="3.5" cy="3.5" r="3.5" class="cls-3" transform="translate(-4009 -1436)"/>
        </g>
        <g transform="translate(4009 1546)">
            <circle id="Ellipse_380-46" cx="3.5" cy="3.5" r="3.5" class="cls-3" transform="translate(-4009 -1436)"/>
        </g>
        <g transform="translate(4031 1546)">
            <circle id="Ellipse_380-47" cx="3.5" cy="3.5" r="3.5" class="cls-3" transform="translate(-4009 -1436)"/>
        </g>
        <g transform="translate(4053 1546)">
            <circle id="Ellipse_380-48" cx="3.5" cy="3.5" r="3.5" class="cls-3" transform="translate(-4009 -1436)"/>
        </g>
        <g transform="translate(4075 1546)">
            <circle id="Ellipse_380-49" cx="3.5" cy="3.5" r="3.5" class="cls-3" transform="translate(-4009 -1436)"/>
        </g>
        <g transform="translate(4097 1546)">
            <circle id="Ellipse_380-50" cx="3.5" cy="3.5" r="3.5" class="cls-3" transform="translate(-4009 -1436)"/>
        </g>
        <g transform="translate(4119 1546)">
            <circle id="Ellipse_380-51" cx="3.5" cy="3.5" r="3.5" class="cls-3" transform="translate(-4009 -1436)"/>
        </g>
        <g transform="translate(4141 1546)">
            <circle id="Ellipse_380-52" cx="3.5" cy="3.5" r="3.5" class="cls-3" transform="translate(-4009 -1436)"/>
        </g>
        <g transform="translate(4163 1546)">
            <circle id="Ellipse_380-53" cx="3.5" cy="3.5" r="3.5" class="cls-3" transform="translate(-4009 -1436)"/>
        </g>
        <g transform="translate(4185 1546)">
            <circle id="Ellipse_380-54" cx="3.5" cy="3.5" r="3.5" class="cls-3" transform="translate(-4009 -1436)"/>
        </g>
        <g transform="translate(4009 1568)">
            <circle id="Ellipse_380-55" cx="3.5" cy="3.5" r="3.5" class="cls-3" transform="translate(-4009 -1436)"/>
        </g>
        <g transform="translate(4031 1568)">
            <circle id="Ellipse_380-56" cx="3.5" cy="3.5" r="3.5" class="cls-3" transform="translate(-4009 -1436)"/>
        </g>
        <g transform="translate(4053 1568)">
            <circle id="Ellipse_380-57" cx="3.5" cy="3.5" r="3.5" class="cls-3" transform="translate(-4009 -1436)"/>
        </g>
        <g transform="translate(4075 1568)">
            <circle id="Ellipse_380-58" cx="3.5" cy="3.5" r="3.5" class="cls-3" transform="translate(-4009 -1436)"/>
        </g>
        <g transform="translate(4097 1568)">
            <circle id="Ellipse_380-59" cx="3.5" cy="3.5" r="3.5" class="cls-3" transform="translate(-4009 -1436)"/>
        </g>
        <g transform="translate(4119 1568)">
            <circle id="Ellipse_380-60" cx="3.5" cy="3.5" r="3.5" class="cls-3" transform="translate(-4009 -1436)"/>
        </g>
        <g transform="translate(4141 1568)">
            <circle id="Ellipse_380-61" cx="3.5" cy="3.5" r="3.5" class="cls-3" transform="translate(-4009 -1436)"/>
        </g>
        <g transform="translate(4163 1568)">
            <circle id="Ellipse_380-62" cx="3.5" cy="3.5" r="3.5" class="cls-3" transform="translate(-4009 -1436)"/>
        </g>
        <g transform="translate(4185 1568)">
            <circle id="Ellipse_380-63" cx="3.5" cy="3.5" r="3.5" class="cls-3" transform="translate(-4009 -1436)"/>
        </g>
        <g transform="translate(4009 1590)">
            <circle id="Ellipse_380-64" cx="3.5" cy="3.5" r="3.5" class="cls-3" transform="translate(-4009 -1436)"/>
        </g>
        <g transform="translate(4031 1590)">
            <circle id="Ellipse_380-65" cx="3.5" cy="3.5" r="3.5" class="cls-3" transform="translate(-4009 -1436)"/>
        </g>
        <g transform="translate(4053 1590)">
            <circle id="Ellipse_380-66" cx="3.5" cy="3.5" r="3.5" class="cls-3" transform="translate(-4009 -1436)"/>
        </g>
        <g transform="translate(4075 1590)">
            <circle id="Ellipse_380-67" cx="3.5" cy="3.5" r="3.5" class="cls-3" transform="translate(-4009 -1436)"/>
        </g>
        <g transform="translate(4097 1590)">
            <circle id="Ellipse_380-68" cx="3.5" cy="3.5" r="3.5" class="cls-3" transform="translate(-4009 -1436)"/>
        </g>
        <g transform="translate(4119 1590)">
            <circle id="Ellipse_380-69" cx="3.5" cy="3.5" r="3.5" class="cls-3" transform="translate(-4009 -1436)"/>
        </g>
        <g transform="translate(4141 1590)">
            <circle id="Ellipse_380-70" cx="3.5" cy="3.5" r="3.5" class="cls-3" transform="translate(-4009 -1436)"/>
        </g>
        <g transform="translate(4163 1590)">
            <circle id="Ellipse_380-71" cx="3.5" cy="3.5" r="3.5" class="cls-3" transform="translate(-4009 -1436)"/>
        </g>
        <g transform="translate(4185 1590)">
            <circle id="Ellipse_380-72" cx="3.5" cy="3.5" r="3.5" class="cls-3" transform="translate(-4009 -1436)"/>
        </g>
        <g transform="translate(4009 1612)">
            <circle id="Ellipse_380-73" cx="3.5" cy="3.5" r="3.5" class="cls-3" transform="translate(-4009 -1436)"/>
        </g>
        <g transform="translate(4031 1612)">
            <circle id="Ellipse_380-74" cx="3.5" cy="3.5" r="3.5" class="cls-3" transform="translate(-4009 -1436)"/>
        </g>
        <g transform="translate(4053 1612)">
            <circle id="Ellipse_380-75" cx="3.5" cy="3.5" r="3.5" class="cls-3" transform="translate(-4009 -1436)"/>
        </g>
        <g transform="translate(4075 1612)">
            <circle id="Ellipse_380-76" cx="3.5" cy="3.5" r="3.5" class="cls-3" transform="translate(-4009 -1436)"/>
        </g>
        <g transform="translate(4097 1612)">
            <circle id="Ellipse_380-77" cx="3.5" cy="3.5" r="3.5" class="cls-3" transform="translate(-4009 -1436)"/>
        </g>
        <g transform="translate(4119 1612)">
            <circle id="Ellipse_380-78" cx="3.5" cy="3.5" r="3.5" class="cls-3" transform="translate(-4009 -1436)"/>
        </g>
        <g transform="translate(4141 1612)">
            <circle id="Ellipse_380-79" cx="3.5" cy="3.5" r="3.5" class="cls-3" transform="translate(-4009 -1436)"/>
        </g>
        <g transform="translate(4163 1612)">
            <circle id="Ellipse_380-80" cx="3.5" cy="3.5" r="3.5" class="cls-3" transform="translate(-4009 -1436)"/>
        </g>
        <g transform="translate(4185 1612)">
            <circle id="Ellipse_380-81" cx="3.5" cy="3.5" r="3.5" class="cls-3" transform="translate(-4009 -1436)"/>
        </g>
        <g transform="translate(4009 1634)">
            <circle id="Ellipse_380-82" cx="3.5" cy="3.5" r="3.5" class="cls-3" transform="translate(-4009 -1436)"/>
        </g>
        <g transform="translate(4031 1634)">
            <circle id="Ellipse_380-83" cx="3.5" cy="3.5" r="3.5" class="cls-3" transform="translate(-4009 -1436)"/>
        </g>
        <g transform="translate(4053 1634)">
            <circle id="Ellipse_380-84" cx="3.5" cy="3.5" r="3.5" class="cls-3" transform="translate(-4009 -1436)"/>
        </g>
        <g transform="translate(4075 1634)">
            <circle id="Ellipse_380-85" cx="3.5" cy="3.5" r="3.5" class="cls-3" transform="translate(-4009 -1436)"/>
        </g>
        <g transform="translate(4097 1634)">
            <circle id="Ellipse_380-86" cx="3.5" cy="3.5" r="3.5" class="cls-3" transform="translate(-4009 -1436)"/>
        </g>
        <g transform="translate(4119 1634)">
            <circle id="Ellipse_380-87" cx="3.5" cy="3.5" r="3.5" class="cls-3" transform="translate(-4009 -1436)"/>
        </g>
        <g transform="translate(4141 1634)">
            <circle id="Ellipse_380-88" cx="3.5" cy="3.5" r="3.5" class="cls-3" transform="translate(-4009 -1436)"/>
        </g>
        <g transform="translate(4163 1634)">
            <circle id="Ellipse_380-89" cx="3.5" cy="3.5" r="3.5" class="cls-3" transform="translate(-4009 -1436)"/>
        </g>
        <g transform="translate(4185 1634)">
            <circle id="Ellipse_380-90" cx="3.5" cy="3.5" r="3.5" class="cls-3" transform="translate(-4009 -1436)"/>
        </g>
        <g transform="translate(4009 1656)">
            <circle id="Ellipse_380-91" cx="3.5" cy="3.5" r="3.5" class="cls-3" transform="translate(-4009 -1436)"/>
        </g>
        <g transform="translate(4031 1656)">
            <circle id="Ellipse_380-92" cx="3.5" cy="3.5" r="3.5" class="cls-3" transform="translate(-4009 -1436)"/>
        </g>
        <g transform="translate(4053 1656)">
            <circle id="Ellipse_380-93" cx="3.5" cy="3.5" r="3.5" class="cls-3" transform="translate(-4009 -1436)"/>
        </g>
        <g transform="translate(4075 1656)">
            <circle id="Ellipse_380-94" cx="3.5" cy="3.5" r="3.5" class="cls-3" transform="translate(-4009 -1436)"/>
        </g>
        <g transform="translate(4097 1656)">
            <circle id="Ellipse_380-95" cx="3.5" cy="3.5" r="3.5" class="cls-3" transform="translate(-4009 -1436)"/>
        </g>
        <g transform="translate(4119 1656)">
            <circle id="Ellipse_380-96" cx="3.5" cy="3.5" r="3.5" class="cls-3" transform="translate(-4009 -1436)"/>
        </g>
        <g transform="translate(4141 1656)">
            <circle id="Ellipse_380-97" cx="3.5" cy="3.5" r="3.5" class="cls-3" transform="translate(-4009 -1436)"/>
        </g>
        <g transform="translate(4163 1656)">
            <circle id="Ellipse_380-98" cx="3.5" cy="3.5" r="3.5" class="cls-3" transform="translate(-4009 -1436)"/>
        </g>
        <g transform="translate(4185 1656)">
            <circle id="Ellipse_380-99" cx="3.5" cy="3.5" r="3.5" class="cls-3" transform="translate(-4009 -1436)"/>
        </g>
        <g transform="translate(4009 1678)">
            <circle id="Ellipse_380-100" cx="3.5" cy="3.5" r="3.5" class="cls-3" transform="translate(-4009 -1436)"/>
        </g>
        <g transform="translate(4031 1678)">
            <circle id="Ellipse_380-101" cx="3.5" cy="3.5" r="3.5" class="cls-3" transform="translate(-4009 -1436)"/>
        </g>
        <g transform="translate(4053 1678)">
            <circle id="Ellipse_380-102" cx="3.5" cy="3.5" r="3.5" class="cls-3" transform="translate(-4009 -1436)"/>
        </g>
        <g transform="translate(4075 1678)">
            <circle id="Ellipse_380-103" cx="3.5" cy="3.5" r="3.5" class="cls-3" transform="translate(-4009 -1436)"/>
        </g>
        <g transform="translate(4097 1678)">
            <circle id="Ellipse_380-104" cx="3.5" cy="3.5" r="3.5" class="cls-3" transform="translate(-4009 -1436)"/>
        </g>
        <g transform="translate(4119 1678)">
            <circle id="Ellipse_380-105" cx="3.5" cy="3.5" r="3.5" class="cls-3" transform="translate(-4009 -1436)"/>
        </g>
        <g transform="translate(4141 1678)">
            <circle id="Ellipse_380-106" cx="3.5" cy="3.5" r="3.5" class="cls-3" transform="translate(-4009 -1436)"/>
        </g>
        <g transform="translate(4163 1678)">
            <circle id="Ellipse_380-107" cx="3.5" cy="3.5" r="3.5" class="cls-3" transform="translate(-4009 -1436)"/>
        </g>
        <g transform="translate(4185 1678)">
            <circle id="Ellipse_380-108" cx="3.5" cy="3.5" r="3.5" class="cls-3" transform="translate(-4009 -1436)"/>
        </g>
    </g>
</svg>
