<svg xmlns="http://www.w3.org/2000/svg" width="19.047" height="15.476" viewBox="0 0 19.047 15.476">
    <path fill="#0097a7" d="M760.994 2465.753a8.176 8.176 0 0 1-2.25.616 3.883 3.883 0 0 0 1.718-2.158 7.8 7.8 0 0 1-2.476.945 3.9 3.9 0 0 0-6.754 2.67 4.018 4.018 0 0 0 .091.891 11.051 11.051 0 0 1-8.048-4.084 3.905 3.905 0 0 0 1.2 5.219 3.86 3.86 0 0 1-1.764-.48v.042a3.923 3.923 0 0 0 3.129 3.837 3.919 3.919 0 0 1-1.024.128 3.415 3.415 0 0 1-.739-.067 3.943 3.943 0 0 0 3.649 2.72 7.849 7.849 0 0 1-4.841 1.665 7.31 7.31 0 0 1-.935-.053 11.114 11.114 0 0 0 17.1-9.359c0-.173-.006-.339-.014-.5a7.808 7.808 0 0 0 1.958-2.032z" opacity="0.996" transform="translate(-741.947 -2463.92)"/>
</svg>
